<?xml version="1.0" encoding="UTF-8" standalone="no"?>
<svg
   xmlns:dc="http://purl.org/dc/elements/1.1/"
   xmlns:cc="http://creativecommons.org/ns#"
   xmlns:rdf="http://www.w3.org/1999/02/22-rdf-syntax-ns#"
   xmlns:svg="http://www.w3.org/2000/svg"
   xmlns="http://www.w3.org/2000/svg"
   xmlns:sodipodi="http://sodipodi.sourceforge.net/DTD/sodipodi-0.dtd"
   xmlns:inkscape="http://www.inkscape.org/namespaces/inkscape"
   inkscape:version="1.0beta2 (998e94e, 2020-02-11)"
   sodipodi:docname="linkedin.svg"
   viewBox="0 0 1014.0133 600.41333"
   height="600.41333"
   width="1014.0133"
   xml:space="preserve"
   id="svg2"
   version="1.1"><metadata
     id="metadata8"><rdf:RDF><cc:Work
         rdf:about=""><dc:format>image/svg+xml</dc:format><dc:type
           rdf:resource="http://purl.org/dc/dcmitype/StillImage" /><dc:title /></cc:Work></rdf:RDF></metadata><defs
     id="defs6"><clipPath
       id="clipPath46"
       clipPathUnits="userSpaceOnUse"><path
         inkscape:connector-curvature="0"
         id="path44"
         d="m 2023.45,3413.73 -394.4,-20.76 560.44,-300.96 z" /></clipPath><linearGradient
       id="linearGradient52"
       spreadMethod="pad"
       gradientTransform="matrix(555.76,-306.238,389.141,437.376,1700.13,3472.86)"
       gradientUnits="userSpaceOnUse"
       y2="0"
       x2="1"
       y1="0"
       x1="0"><stop
         id="stop48"
         offset="0"
         style="stop-opacity:1;stop-color:#0053b7" /><stop
         id="stop50"
         offset="1"
         style="stop-opacity:1;stop-color:#48adff" /></linearGradient><clipPath
       id="clipPath62"
       clipPathUnits="userSpaceOnUse"><path
         inkscape:connector-curvature="0"
         id="path60"
         d="M 0,0 H 7605 V 4503 H 0 Z" /></clipPath><clipPath
       id="clipPath68"
       clipPathUnits="userSpaceOnUse"><path
         inkscape:connector-curvature="0"
         id="path66"
         d="m 1628.54,3393.08 v 885.75 c 0,115.02 124.95,224.25 240,224.25 h 702.55 c 115.06,0 227.45,-109.23 227.45,-224.25 v -702.6 c 0,-115.02 -112.39,-183.15 -227.45,-183.15 z" /></clipPath><linearGradient
       id="linearGradient74"
       spreadMethod="pad"
       gradientTransform="matrix(804.157,-1148.48,-1148.48,-804.157,1778.55,4488.21)"
       gradientUnits="userSpaceOnUse"
       y2="0"
       x2="1"
       y1="0"
       x1="0"><stop
         id="stop70"
         offset="0"
         style="stop-opacity:1;stop-color:#0053b7" /><stop
         id="stop72"
         offset="1"
         style="stop-opacity:1;stop-color:#48adff" /></linearGradient><clipPath
       id="clipPath90"
       clipPathUnits="userSpaceOnUse"><path
         inkscape:connector-curvature="0"
         id="path88"
         d="m 2903.44,646.129 c 0,-139.457 -114.12,-262.707 -253.59,-262.707 H 797.473 V 908.809 H 2649.85 c 139.47,0 253.59,-123.239 253.59,-262.68 z" /></clipPath><linearGradient
       id="linearGradient96"
       spreadMethod="pad"
       gradientTransform="matrix(1575.37,1103.07,1103.07,-1575.37,991.143,106.83)"
       gradientUnits="userSpaceOnUse"
       y2="0"
       x2="1"
       y1="0"
       x1="0"><stop
         id="stop92"
         offset="0"
         style="stop-opacity:1;stop-color:#0053b7" /><stop
         id="stop94"
         offset="1"
         style="stop-opacity:1;stop-color:#48adff" /></linearGradient><clipPath
       id="clipPath106"
       clipPathUnits="userSpaceOnUse"><path
         inkscape:connector-curvature="0"
         id="path104"
         d="m 51.5625,646.32 c 0,-244.429 198.1715,-442.578 442.6095,-442.578 244.426,0 442.598,198.149 442.598,442.578 0,244.442 -198.172,442.58 -442.598,442.58 -244.438,0 -442.6095,-198.138 -442.6095,-442.58 z" /></clipPath><linearGradient
       id="linearGradient112"
       spreadMethod="pad"
       gradientTransform="matrix(725.168,507.759,507.759,-725.168,131.602,392.44)"
       gradientUnits="userSpaceOnUse"
       y2="0"
       x2="1"
       y1="0"
       x1="0"><stop
         id="stop108"
         offset="0"
         style="stop-opacity:1;stop-color:#0053b7" /><stop
         id="stop110"
         offset="1"
         style="stop-opacity:1;stop-color:#48adff" /></linearGradient><clipPath
       id="clipPath146"
       clipPathUnits="userSpaceOnUse"><path
         inkscape:connector-curvature="0"
         id="path144"
         d="m 4375.66,136.762 h -624.87 c -89.2,0 -170.67,72.57 -181.62,161.769 l -76.73,624.891 c -7.91,64.379 20.62,124.248 91.72,189.878 -13.64,-26.87 -18.89,-57.94 -14.91,-90.35 L 3646,396.789 c 11.26,-91.797 93.95,-163.707 188.25,-163.707 h 624.88 c 42.32,0 80.13,14.688 107.57,41.57 -61.05,-95.132 -120.67,-137.89 -191.04,-137.89 m -800.31,788.66 -57.71,-142.293 19.31,-160.289 57.74,142.281 -19.34,160.301" /></clipPath><linearGradient
       id="linearGradient152"
       spreadMethod="pad"
       gradientTransform="matrix(913.485,699.753,822.478,-999.368,3549.78,276.03)"
       gradientUnits="userSpaceOnUse"
       y2="0"
       x2="1"
       y1="0"
       x1="0"><stop
         id="stop148"
         offset="0"
         style="stop-opacity:1;stop-color:#0053b7" /><stop
         id="stop150"
         offset="1"
         style="stop-opacity:1;stop-color:#48adff" /></linearGradient><clipPath
       id="clipPath164"
       clipPathUnits="userSpaceOnUse"><path
         inkscape:connector-curvature="0"
         id="path162"
         d="m 4459.13,243.082 h -624.88 c -0.83,0 -1.66,0.008 -2.48,0.02 -71.8,14.859 -132.12,77.16 -141.26,151.527 l -76.72,624.881 c -5.04,41.1 6.22,79.59 31.73,108.4 25.19,28.49 61.43,44.17 102.04,44.17 h -30.12 c -40.62,0 -76.86,-15.68 -102.06,-44.17 -25.5,-28.81 -36.75,-67.3 -31.72,-108.4 l 76.73,-624.881 c 5.49,-44.68 29.45,-85 63.27,-113.289 -36.41,28.18 -61.97,69.672 -67.74,116.66 l -76.75,626.16 c -5.24,42.77 6.59,82.95 33.31,113.15 26.01,29.4 63.09,45.64 104.46,45.77 0.17,0 0.34,0 0.5,0 v 0 h 624.87 c 87.48,0 167.48,-71.84 178.34,-160.13 l 76.72,-626.161 c 5.07,-41.297 -6.05,-79.758 -31.33,-108.32 -25.89,-29.27 -63.86,-45.387 -106.91,-45.387" /></clipPath><linearGradient
       id="linearGradient170"
       spreadMethod="pad"
       gradientTransform="matrix(-941.6,-83.0765,-130.377,1055.14,4559,749.58)"
       gradientUnits="userSpaceOnUse"
       y2="0"
       x2="1"
       y1="0"
       x1="0"><stop
         id="stop166"
         offset="0"
         style="stop-opacity:1;stop-color:#0053b7" /><stop
         id="stop168"
         offset="1"
         style="stop-opacity:1;stop-color:#48adff" /></linearGradient><clipPath
       id="clipPath188"
       clipPathUnits="userSpaceOnUse"><path
         inkscape:connector-curvature="0"
         id="path186"
         d="m 3831.77,243.102 c -40.09,0.558 -77.84,14.796 -108.11,38.238 -33.82,28.289 -57.78,68.609 -63.27,113.289 l -76.73,624.881 c -5.03,41.1 6.22,79.59 31.72,108.4 25.2,28.49 61.44,44.17 102.06,44.17 h 30.12 c -40.61,0 -76.85,-15.68 -102.04,-44.17 -25.51,-28.81 -36.77,-67.3 -31.73,-108.4 l 76.72,-624.881 c 9.14,-74.367 69.46,-136.668 141.26,-151.527" /></clipPath><linearGradient
       id="linearGradient194"
       spreadMethod="pad"
       gradientTransform="matrix(-941.6,-83.0765,-130.377,1055.14,4559,749.58)"
       gradientUnits="userSpaceOnUse"
       y2="0"
       x2="1"
       y1="0"
       x1="0"><stop
         id="stop190"
         offset="0"
         style="stop-opacity:1;stop-color:#4d87cd" /><stop
         id="stop192"
         offset="1"
         style="stop-opacity:1;stop-color:#7fc6ff" /></linearGradient><clipPath
       id="clipPath206"
       clipPathUnits="userSpaceOnUse"><path
         inkscape:connector-curvature="0"
         id="path204"
         d="m 3536.95,622.84 -19.31,160.289 57.71,142.293 19.34,-160.301 -57.74,-142.281" /></clipPath><linearGradient
       id="linearGradient212"
       spreadMethod="pad"
       gradientTransform="matrix(913.485,699.753,822.478,-999.368,3549.78,276.03)"
       gradientUnits="userSpaceOnUse"
       y2="0"
       x2="1"
       y1="0"
       x1="0"><stop
         id="stop208"
         offset="0"
         style="stop-opacity:1;stop-color:#1a65be" /><stop
         id="stop210"
         offset="1"
         style="stop-opacity:1;stop-color:#5bb5ff" /></linearGradient><clipPath
       id="clipPath222"
       clipPathUnits="userSpaceOnUse"><path
         inkscape:connector-curvature="0"
         id="path220"
         d="m 3415.03,4072.09 h 250.03 v -770.75 h -250.03 z" /></clipPath><linearGradient
       id="linearGradient228"
       spreadMethod="pad"
       gradientTransform="matrix(529.904,371.036,371.036,-529.904,3275.1,3501.19)"
       gradientUnits="userSpaceOnUse"
       y2="0"
       x2="1"
       y1="0"
       x1="0"><stop
         id="stop224"
         offset="0"
         style="stop-opacity:1;stop-color:#0053b7" /><stop
         id="stop226"
         offset="1"
         style="stop-opacity:1;stop-color:#48adff" /></linearGradient><clipPath
       id="clipPath238"
       clipPathUnits="userSpaceOnUse"><path
         inkscape:connector-curvature="0"
         id="path236"
         d="m 4346.08,4063.05 c -2.65,0.83 -5.16,1.73 -7.96,2.52 -3.37,0.77 -6.71,1.4 -10.15,1.95 -13.26,2.66 -27.8,4.57 -44.85,4.57 -145.76,0 -238.22,-106.32 -268.67,-147.36 v 147.36 h -250.03 v -770.75 h 250.03 v 420.41 c 0,0 188.93,263.86 268.67,70.08 v -490.49 h 249.96 v 520.1 c 0,116.46 -79.62,213.49 -187,241.61 z" /></clipPath><linearGradient
       id="linearGradient244"
       spreadMethod="pad"
       gradientTransform="matrix(797.072,558.106,558.106,-797.072,3709.8,3379.35)"
       gradientUnits="userSpaceOnUse"
       y2="0"
       x2="1"
       y1="0"
       x1="0"><stop
         id="stop240"
         offset="0"
         style="stop-opacity:1;stop-color:#0053b7" /><stop
         id="stop242"
         offset="1"
         style="stop-opacity:1;stop-color:#48adff" /></linearGradient><clipPath
       id="clipPath254"
       clipPathUnits="userSpaceOnUse"><path
         inkscape:connector-curvature="0"
         id="path252"
         d="m 3659.61,4299.79 c 0,-67.72 -54.77,-122.62 -122.29,-122.62 -67.52,0 -122.29,54.9 -122.29,122.62 0,67.71 54.77,122.62 122.29,122.62 67.52,0 122.29,-54.91 122.29,-122.62 z" /></clipPath><linearGradient
       id="linearGradient260"
       spreadMethod="pad"
       gradientTransform="matrix(200.54,140.417,140.417,-200.54,3437.06,4229.57)"
       gradientUnits="userSpaceOnUse"
       y2="0"
       x2="1"
       y1="0"
       x1="0"><stop
         id="stop256"
         offset="0"
         style="stop-opacity:1;stop-color:#0053b7" /><stop
         id="stop258"
         offset="1"
         style="stop-opacity:1;stop-color:#48adff" /></linearGradient><clipPath
       id="clipPath270"
       clipPathUnits="userSpaceOnUse"><path
         inkscape:connector-curvature="0"
         id="path268"
         d="M 29.707,4056.98 H 275.016 V 3300.8 H 29.707 Z" /></clipPath><linearGradient
       id="linearGradient276"
       spreadMethod="pad"
       gradientTransform="matrix(519.896,364.029,364.029,-519.896,-107.578,3496.88)"
       gradientUnits="userSpaceOnUse"
       y2="0"
       x2="1"
       y1="0"
       x1="0"><stop
         id="stop272"
         offset="0"
         style="stop-opacity:1;stop-color:#0053b7" /><stop
         id="stop274"
         offset="1"
         style="stop-opacity:1;stop-color:#48adff" /></linearGradient><clipPath
       id="clipPath288"
       clipPathUnits="userSpaceOnUse"><path
         inkscape:connector-curvature="0"
         id="path286"
         d="m 943.188,4048.11 c -2.614,0.82 -5.075,1.71 -7.813,2.5 -3.309,0.73 -6.582,1.37 -9.949,1.89 -13.016,2.63 -27.289,4.48 -44.016,4.48 -142.996,0 -233.719,-104.29 -263.594,-144.56 v 144.56 H 372.512 V 3300.8 h 245.304 v 412.46 c 0,0 185.372,258.89 263.594,68.77 V 3300.8 h 245.25 v 510.29 c 0,114.26 -78.11,209.46 -183.472,237.02 z" /></clipPath><linearGradient
       id="linearGradient294"
       spreadMethod="pad"
       gradientTransform="matrix(782.032,547.575,547.575,-782.032,318.916,3377.34)"
       gradientUnits="userSpaceOnUse"
       y2="0"
       x2="1"
       y1="0"
       x1="0"><stop
         id="stop290"
         offset="0"
         style="stop-opacity:1;stop-color:#0053b7" /><stop
         id="stop292"
         offset="1"
         style="stop-opacity:1;stop-color:#48adff" /></linearGradient><clipPath
       id="clipPath306"
       clipPathUnits="userSpaceOnUse"><path
         inkscape:connector-curvature="0"
         id="path304"
         d="m 269.672,4280.41 c 0,-66.46 -53.727,-120.31 -119.977,-120.31 -66.2536,0 -119.988,53.85 -119.988,120.31 0,66.43 53.7344,120.29 119.988,120.29 66.25,0 119.977,-53.86 119.977,-120.29 z" /></clipPath><linearGradient
       id="linearGradient312"
       spreadMethod="pad"
       gradientTransform="matrix(196.756,137.768,137.768,-196.756,51.3184,4211.51)"
       gradientUnits="userSpaceOnUse"
       y2="0"
       x2="1"
       y1="0"
       x1="0"><stop
         id="stop308"
         offset="0"
         style="stop-opacity:1;stop-color:#0053b7" /><stop
         id="stop310"
         offset="1"
         style="stop-opacity:1;stop-color:#48adff" /></linearGradient><clipPath
       id="clipPath324"
       clipPathUnits="userSpaceOnUse"><path
         inkscape:connector-curvature="0"
         id="path322"
         d="m 4256.87,1673.08 h -532.88 c -182.27,0 -335.46,151.29 -335.46,333.54 v 532.91 c 0,182.26 153.19,333.55 335.46,333.55 h 532.88 c 182.27,0 331.66,-151.29 331.66,-333.55 v -532.91 c 0,-182.25 -149.39,-333.54 -331.66,-333.54 m -671.06,512.04 c 0,-258.07 209.22,-467.25 467.28,-467.25 258.04,0 467.25,209.18 467.25,467.25 v 0 c 0,258.06 -209.21,467.26 -467.25,467.26 -258.06,0 -467.28,-209.2 -467.28,-467.26 v 0" /></clipPath><linearGradient
       id="linearGradient330"
       spreadMethod="pad"
       gradientTransform="matrix(1152.96,807.297,807.297,-1152.96,3412.9,1869.12)"
       gradientUnits="userSpaceOnUse"
       y2="0"
       x2="1"
       y1="0"
       x1="0"><stop
         id="stop326"
         offset="0"
         style="stop-opacity:1;stop-color:#0053b7" /><stop
         id="stop328"
         offset="1"
         style="stop-opacity:1;stop-color:#48adff" /></linearGradient><clipPath
       id="clipPath340"
       clipPathUnits="userSpaceOnUse"><path
         inkscape:connector-curvature="0"
         id="path338"
         d="m 4053.09,1717.87 c -258.06,0 -467.28,209.18 -467.28,467.25 0,258.06 209.22,467.26 467.28,467.26 258.04,0 467.25,-209.2 467.25,-467.26 0,-258.07 -209.21,-467.25 -467.25,-467.25" /></clipPath><clipPath
       id="clipPath352"
       clipPathUnits="userSpaceOnUse"><path
         inkscape:connector-curvature="0"
         id="path350"
         d="m 3526.72,2273.8 c 0,-258.07 209.19,-467.26 467.24,-467.26 258.07,0 467.28,209.19 467.28,467.26 0,258.05 -209.21,467.24 -467.28,467.24 -258.05,0 -467.24,-209.19 -467.24,-467.24 z" /></clipPath><linearGradient
       id="linearGradient362"
       spreadMethod="pad"
       gradientTransform="matrix(568.62,-729.321,-729.321,-568.62,3736.85,2603.59)"
       gradientUnits="userSpaceOnUse"
       y2="0"
       x2="1"
       y1="0"
       x1="0"><stop
         id="stop354"
         offset="0"
         style="stop-opacity:1;stop-color:#ffffff" /><stop
         id="stop356"
         offset="0.44"
         style="stop-opacity:1;stop-color:#dde7f1" /><stop
         id="stop358"
         offset="0.8084206"
         style="stop-opacity:1;stop-color:#dde7f1" /><stop
         id="stop360"
         offset="1"
         style="stop-opacity:1;stop-color:#807ead" /></linearGradient><clipPath
       id="clipPath372"
       clipPathUnits="userSpaceOnUse"><path
         inkscape:connector-curvature="0"
         id="path370"
         d="m 3709.3,2380.83 h 127.32 V 1988.35 H 3709.3 Z" /></clipPath><linearGradient
       id="linearGradient378"
       spreadMethod="pad"
       gradientTransform="matrix(269.844,188.944,188.944,-269.844,3638.05,2090.11)"
       gradientUnits="userSpaceOnUse"
       y2="0"
       x2="1"
       y1="0"
       x1="0"><stop
         id="stop374"
         offset="0"
         style="stop-opacity:1;stop-color:#0053b7" /><stop
         id="stop376"
         offset="1"
         style="stop-opacity:1;stop-color:#48adff" /></linearGradient><clipPath
       id="clipPath388"
       clipPathUnits="userSpaceOnUse"><path
         inkscape:connector-curvature="0"
         id="path386"
         d="m 4183.42,2376.23 c -1.36,0.42 -2.65,0.89 -4.06,1.28 -1.71,0.39 -3.41,0.72 -5.16,1 -6.75,1.36 -14.16,2.32 -22.83,2.32 -74.24,0 -121.33,-54.13 -136.82,-75.04 v 75.04 h -127.32 v -392.48 h 127.32 v 214.08 c 0,0 96.21,134.38 136.82,35.69 v -249.77 h 127.28 v 264.87 c 0,59.28 -40.54,108.71 -95.23,123.01 z" /></clipPath><linearGradient
       id="linearGradient394"
       spreadMethod="pad"
       gradientTransform="matrix(405.9,284.209,284.209,-405.9,3859.42,2028.07)"
       gradientUnits="userSpaceOnUse"
       y2="0"
       x2="1"
       y1="0"
       x1="0"><stop
         id="stop390"
         offset="0"
         style="stop-opacity:1;stop-color:#0053b7" /><stop
         id="stop392"
         offset="1"
         style="stop-opacity:1;stop-color:#48adff" /></linearGradient><clipPath
       id="clipPath404"
       clipPathUnits="userSpaceOnUse"><path
         inkscape:connector-curvature="0"
         id="path402"
         d="m 3833.85,2496.78 c 0,-34.48 -27.89,-62.42 -62.28,-62.42 -34.37,0 -62.27,27.94 -62.27,62.42 0,34.49 27.9,62.45 62.27,62.45 34.39,0 62.28,-27.96 62.28,-62.45 z" /></clipPath><linearGradient
       id="linearGradient410"
       spreadMethod="pad"
       gradientTransform="matrix(102.12,71.5039,71.5039,-102.12,3720.52,2461.04)"
       gradientUnits="userSpaceOnUse"
       y2="0"
       x2="1"
       y1="0"
       x1="0"><stop
         id="stop406"
         offset="0"
         style="stop-opacity:1;stop-color:#0053b7" /><stop
         id="stop408"
         offset="1"
         style="stop-opacity:1;stop-color:#48adff" /></linearGradient><clipPath
       id="clipPath560"
       clipPathUnits="userSpaceOnUse"><path
         inkscape:connector-curvature="0"
         id="path558"
         d="M 0,0 H 7605 V 4503 H 0 Z" /></clipPath><clipPath
       id="clipPath566"
       clipPathUnits="userSpaceOnUse"><path
         inkscape:connector-curvature="0"
         id="path564"
         d="m 7389.71,3590.1 215.41,-325.58 h -865.31 l -332.29,259.09 z" /></clipPath><linearGradient
       id="linearGradient572"
       spreadMethod="pad"
       gradientTransform="matrix(-1175.82,-76.3533,76.3533,-1175.82,7594.13,3433.59)"
       gradientUnits="userSpaceOnUse"
       y2="0"
       x2="1"
       y1="0"
       x1="0"><stop
         id="stop568"
         offset="0"
         style="stop-opacity:1;stop-color:#0053b7" /><stop
         id="stop570"
         offset="1"
         style="stop-opacity:1;stop-color:#48adff" /></linearGradient><linearGradient
       id="linearGradient580"
       spreadMethod="pad"
       gradientTransform="matrix(-1175.82,-76.3533,76.3533,-1175.82,7594.13,3433.59)"
       gradientUnits="userSpaceOnUse"
       y2="0"
       x2="1"
       y1="0"
       x1="0"><stop
         id="stop576"
         offset="0"
         style="stop-opacity:1;stop-color:#0053b7" /><stop
         id="stop578"
         offset="1"
         style="stop-opacity:1;stop-color:#48adff" /></linearGradient><clipPath
       id="clipPath590"
       clipPathUnits="userSpaceOnUse"><path
         inkscape:connector-curvature="0"
         id="path588"
         d="m 6407.52,3523.61 v 938.27 h 938.27 -938.27 v -938.27" /></clipPath><linearGradient
       id="linearGradient596"
       spreadMethod="pad"
       gradientTransform="matrix(64.6114,994.996,994.996,-64.6114,6844.35,3495.25)"
       gradientUnits="userSpaceOnUse"
       y2="0"
       x2="1"
       y1="0"
       x1="0"><stop
         id="stop592"
         offset="0"
         style="stop-opacity:1;stop-color:#0053b7" /><stop
         id="stop594"
         offset="1"
         style="stop-opacity:1;stop-color:#48adff" /></linearGradient><clipPath
       id="clipPath612"
       clipPathUnits="userSpaceOnUse"><path
         inkscape:connector-curvature="0"
         id="path610"
         d="m 6407.52,3523.61 v 0 938.27 h 938.27 v -938.17 l -938.27,-0.1 m 617.96,471.93 c 20.83,0 40.08,-12.6 53.81,-47.07 v -326.28 h 167.94 v 345.89 c 0,77.09 -53.12,141.37 -124.46,159.97 -1.75,0.54 -3.55,1.15 -5.39,1.69 -2.25,0.51 -4.52,0.9 -6.79,1.27 -8.83,1.78 -19.44,3.04 -30.77,3.04 -96.84,0 -157.54,-70.41 -179.43,-97.59 v 96.85 H 6736.1 v -511.12 h 164.29 v 279.85 c 0,0 68.37,93.5 125.09,93.5 m -523.03,137.77 v -511.12 h 167.94 v 511.12 h -167.94 m 82.77,232.67 c -44.89,0 -81.27,-36.33 -81.27,-81.16 0,-44.86 36.38,-81.21 81.27,-81.21 44.86,0 81.24,36.35 81.24,81.21 0,44.83 -36.38,81.16 -81.24,81.16" /></clipPath><linearGradient
       id="linearGradient618"
       spreadMethod="pad"
       gradientTransform="matrix(64.6114,994.996,994.996,-64.6114,6844.35,3495.25)"
       gradientUnits="userSpaceOnUse"
       y2="0"
       x2="1"
       y1="0"
       x1="0"><stop
         id="stop614"
         offset="0"
         style="stop-opacity:1;stop-color:#0053b7" /><stop
         id="stop616"
         offset="1"
         style="stop-opacity:1;stop-color:#48adff" /></linearGradient><clipPath
       id="clipPath628"
       clipPathUnits="userSpaceOnUse"><path
         inkscape:connector-curvature="0"
         id="path626"
         d="m 6502.45,3622.19 h 167.941 v 511.121 H 6502.45 Z" /></clipPath><linearGradient
       id="linearGradient634"
       spreadMethod="pad"
       gradientTransform="matrix(64.6114,994.996,994.996,-64.6114,6844.35,3495.25)"
       gradientUnits="userSpaceOnUse"
       y2="0"
       x2="1"
       y1="0"
       x1="0"><stop
         id="stop630"
         offset="0"
         style="stop-opacity:1;stop-color:#004292" /><stop
         id="stop632"
         offset="1"
         style="stop-opacity:1;stop-color:#3a8acc" /></linearGradient><clipPath
       id="clipPath644"
       clipPathUnits="userSpaceOnUse"><path
         inkscape:connector-curvature="0"
         id="path642"
         d="m 7247.23,3622.19 h -167.94 v 326.28 c -13.73,34.47 -32.98,47.07 -53.81,47.07 -56.72,0 -125.09,-93.5 -125.09,-93.5 V 3622.19 H 6736.1 v 511.12 h 164.29 v -96.85 c 21.89,27.18 82.59,97.59 179.43,97.59 11.33,0 21.94,-1.26 30.77,-3.04 2.27,-0.37 4.54,-0.76 6.79,-1.27 1.84,-0.54 3.64,-1.15 5.39,-1.69 71.34,-18.6 124.46,-82.88 124.46,-159.97 v -345.89" /></clipPath><linearGradient
       id="linearGradient650"
       spreadMethod="pad"
       gradientTransform="matrix(64.6114,994.996,994.996,-64.6114,6844.35,3495.25)"
       gradientUnits="userSpaceOnUse"
       y2="0"
       x2="1"
       y1="0"
       x1="0"><stop
         id="stop646"
         offset="0"
         style="stop-opacity:1;stop-color:#004292" /><stop
         id="stop648"
         offset="1"
         style="stop-opacity:1;stop-color:#3a8acc" /></linearGradient><clipPath
       id="clipPath660"
       clipPathUnits="userSpaceOnUse"><path
         inkscape:connector-curvature="0"
         id="path658"
         d="m 6585.22,4203.61 c -44.89,0 -81.27,36.35 -81.27,81.21 0,44.83 36.38,81.16 81.27,81.16 44.86,0 81.24,-36.33 81.24,-81.16 0,-44.86 -36.38,-81.21 -81.24,-81.21" /></clipPath><linearGradient
       id="linearGradient666"
       spreadMethod="pad"
       gradientTransform="matrix(64.6114,994.996,994.996,-64.6114,6844.35,3495.25)"
       gradientUnits="userSpaceOnUse"
       y2="0"
       x2="1"
       y1="0"
       x1="0"><stop
         id="stop662"
         offset="0"
         style="stop-opacity:1;stop-color:#004292" /><stop
         id="stop664"
         offset="1"
         style="stop-opacity:1;stop-color:#3a8acc" /></linearGradient><clipPath
       id="clipPath682"
       clipPathUnits="userSpaceOnUse"><path
         inkscape:connector-curvature="0"
         id="path680"
         d="M 0,0 H 7605 V 4503 H 0 Z" /></clipPath><clipPath
       id="clipPath688"
       clipPathUnits="userSpaceOnUse"><path
         inkscape:connector-curvature="0"
         id="path686"
         d="m 7345.79,3523.71 259.33,-259.19 -0.1,884.62 -259.23,312.74 z" /></clipPath><linearGradient
       id="linearGradient694"
       spreadMethod="pad"
       gradientTransform="matrix(76.3368,1175.56,1175.56,-76.3368,7437.28,3275.41)"
       gradientUnits="userSpaceOnUse"
       y2="0"
       x2="1"
       y1="0"
       x1="0"><stop
         id="stop690"
         offset="0"
         style="stop-opacity:1;stop-color:#0053b7" /><stop
         id="stop692"
         offset="1"
         style="stop-opacity:1;stop-color:#48adff" /></linearGradient><linearGradient
       id="linearGradient702"
       spreadMethod="pad"
       gradientTransform="matrix(76.3368,1175.56,1175.56,-76.3368,7437.28,3275.41)"
       gradientUnits="userSpaceOnUse"
       y2="0"
       x2="1"
       y1="0"
       x1="0"><stop
         id="stop698"
         offset="0"
         style="stop-opacity:1;stop-color:#0053b7" /><stop
         id="stop700"
         offset="1"
         style="stop-opacity:1;stop-color:#48adff" /></linearGradient></defs><sodipodi:namedview
     inkscape:current-layer="g12"
     inkscape:window-maximized="1"
     inkscape:window-y="-9"
     inkscape:window-x="-9"
     inkscape:cy="186.10439"
     inkscape:cx="426.69568"
     inkscape:zoom="0.52778442"
     showgrid="false"
     id="namedview4"
     inkscape:window-height="1001"
     inkscape:window-width="1920"
     inkscape:pageshadow="2"
     inkscape:pageopacity="0"
     guidetolerance="10"
     gridtolerance="10"
     objecttolerance="10"
     borderopacity="1"
     bordercolor="#666666"
     pagecolor="#ffffff"
     inkscape:document-rotation="0" /><g
     transform="matrix(1.3333333,0,0,-1.3333333,0,600.41333)"
     inkscape:label="ink_ext_XXXXXX"
     inkscape:groupmode="layer"
     id="g10"><g
       transform="scale(0.1)"
       id="g12"><path
         inkscape:connector-curvature="0"
         id="path34"
         style="fill:#1b80e4;fill-opacity:1;fill-rule:nonzero;stroke:#2196f3;stroke-width:24.0000006;stroke-miterlimit:4;stroke-dasharray:none;stroke-opacity:1"
         d="M 2008.8771,-680.19609 H 621.28679 V 3398.7116 H 2008.8771 Z m 67.7944,4200.78019 H 553.43174 c -37.39928,0 -67.79428,-27.3387 -67.79428,-60.9631 V -741.10544 c 0,-33.62427 30.395,-60.8557 67.79428,-60.8557 H 2076.6715 c 37.4598,0 67.855,27.23143 67.855,60.8557 V 3459.621 c 0,33.6244 -30.3952,60.9631 -67.855,60.9631" /><path
         inkscape:connector-curvature="0"
         id="path36"
         style="fill:#1b80e4;fill-opacity:1;fill-rule:nonzero;stroke:#2196f3;stroke-width:24.0000006;stroke-miterlimit:4;stroke-dasharray:none;stroke-opacity:1"
         d="M 7296.9662,-680.19609 H 5909.8957 V 1932.1549 c 0,7.9524 -1.7449,15.8515 -5.0919,23.1781 -129.7456,282.1483 -319.1811,425.1741 -562.9796,425.1741 -549.3168,0 -1165.6766,-762.254 -1191.6706,-794.7334 -8.2788,-10.3962 -12.7369,-22.817 -12.7369,-35.549 V -680.19609 H 2749.8833 V 3398.7116 h 1387.5334 v -742.1378 c 0,-26.2977 18.7582,-49.5796 46.4899,-57.8435 27.8492,-8.2639 58.3013,0.3577 75.7849,21.4646 194.0681,234.0749 736.7262,778.5167 1582.3528,778.5167 87.8276,0 170.3852,-7.4839 260.0074,-23.6467 l 2.5994,-0.4651 c 19.8586,-2.7545 38.0971,-5.9242 55.7553,-9.5087 9.1477,-2.2896 17.8895,-4.9368 26.5138,-7.4841 6.1388,-1.8243 12.2741,-3.5844 18.4131,-5.3518 l 3.1336,-0.7869 c 640.9649,-150.0411 1088.4993,-667.2517 1088.4993,-1257.8427 z m -1052.6634,4149.17229 -14.8806,4.3143 c -11.1134,3.2555 -22.2302,6.5467 -34.0415,9.5087 l -3.1335,0.6798 c -20.6669,4.2607 -41.9178,8.0564 -64.8425,11.2796 -98.1326,17.6152 -188.7982,25.8291 -285.3675,25.8291 -766.8329,0 -1298.2565,-413.5833 -1568.9785,-691.8322 v 630.8692 c 0,33.6241 -30.3381,60.963 -67.7942,60.963 H 2682.0248 c -37.4029,0 -67.855,-27.3389 -67.855,-60.963 V -741.10186 c 0,-33.62426 30.4521,-60.8557 67.855,-60.8557 h 1523.2397 c 37.4561,0 67.7942,27.23144 67.7942,60.8557 V 1530.1159 c 89.2165,106.7971 627.3024,728.5224 1068.7583,728.5224 183.2397,0 324.7929,-110.8539 432.4223,-338.7434 V -741.10186 c 0,-33.62426 30.3381,-60.8557 67.7979,-60.8557 h 1522.8337 c 37.3992,0 67.7944,27.23144 67.7944,60.8557 V 2093.6328 c 0,645.5259 -488.5834,1210.8065 -1188.3696,1375.3469" /><path
         inkscape:connector-curvature="0"
         id="path38"
         style="fill:#1b80e4;fill-opacity:1;fill-rule:nonzero;stroke:#2196f3;stroke-width:24.0000006;stroke-miterlimit:4;stroke-dasharray:none;stroke-opacity:1"
         d="m 1298.4938,5308.2119 c 373.3696,0 677.1502,-272.5858 677.1502,-607.4298 0,-334.8976 -303.7806,-607.4335 -677.1502,-607.4335 -373.36943,0 -677.20701,272.5359 -677.20701,607.4335 0,334.844 303.83758,607.4298 677.20701,607.4298 z m 0,-1336.6283 c 448.2286,0 812.8565,327.1525 812.8565,729.1985 0,402.0961 -364.6279,729.1449 -812.8565,729.1449 -448.22864,0 -812.85634,-327.0488 -812.85634,-729.1449 0,-402.046 364.6277,-729.1985 812.85634,-729.1985" /></g></g></svg>
